<?xml version="1.0" standalone="no"?>
<!DOCTYPE svg PUBLIC "-//W3C//DTD SVG 20010904//EN"
 "http://www.w3.org/TR/2001/REC-SVG-20010904/DTD/svg10.dtd">
<svg version="1.0" xmlns="http://www.w3.org/2000/svg"
 width="1763.000000pt" height="1763.000000pt" viewBox="0 0 1763.000000 1763.000000"
 preserveAspectRatio="xMidYMid meet">
<metadata>
Created by potrace 1.11, written by Peter Selinger 2001-2013
</metadata>
<g transform="translate(0.000000,1763.000000) scale(0.100000,-0.100000)"
fill="#000000" stroke="none">
<path d="M5175 14013 c3 -27 8 -68 11 -93 3 -25 7 -58 9 -75 2 -16 7 -61 10
-100 4 -38 8 -81 10 -95 6 -45 15 -124 20 -175 7 -75 25 -245 30 -285 3 -19 7
-62 10 -95 8 -93 18 -192 30 -282 3 -21 7 -63 10 -93 3 -30 7 -71 10 -90 2
-19 7 -57 10 -85 3 -27 7 -66 10 -85 11 -81 14 -109 25 -190 6 -47 13 -103 16
-125 2 -22 7 -51 9 -65 2 -14 7 -45 10 -70 3 -25 10 -70 15 -100 5 -30 12 -71
14 -90 3 -19 7 -48 10 -65 3 -16 10 -59 15 -95 6 -36 13 -76 16 -90 3 -14 14
-79 26 -144 11 -66 22 -123 24 -126 4 -7 6 -17 35 -173 11 -60 22 -130 25
-155 3 -26 8 -56 10 -67 2 -11 7 -42 10 -70 3 -27 8 -59 10 -70 2 -11 7 -47
10 -80 4 -33 8 -71 10 -85 3 -14 7 -50 10 -80 3 -30 8 -66 10 -80 2 -14 7 -56
10 -95 4 -38 8 -81 11 -95 2 -14 6 -58 9 -97 4 -40 8 -81 10 -91 1 -9 6 -62
10 -117 4 -55 9 -107 10 -115 2 -8 6 -62 10 -120 10 -146 17 -157 167 -256
142 -95 716 -371 806 -389 13 -2 31 -6 40 -9 9 -3 23 -2 31 3 17 11 11 144
-13 306 -8 55 -18 120 -21 145 -3 25 -8 56 -10 70 -2 14 -7 52 -11 85 -3 33
-7 67 -9 75 -1 8 -6 44 -10 80 -3 36 -8 76 -10 90 -4 23 -14 104 -20 160 -1
14 -6 58 -10 98 -4 41 -9 88 -11 105 -2 18 -6 52 -9 77 -2 25 -6 59 -9 75 -3
17 -10 68 -16 115 -6 47 -13 96 -15 110 -2 14 -9 61 -15 105 -6 44 -15 100
-20 125 -6 25 -12 61 -15 80 -4 19 -21 112 -40 205 -19 94 -38 197 -44 230
-15 90 -20 114 -31 178 -6 32 -13 74 -16 95 -2 20 -6 44 -9 52 -2 8 -7 38 -11
65 -3 28 -7 57 -9 65 -1 8 -6 40 -10 70 -4 30 -9 63 -11 74 -2 10 -6 44 -9 75
-4 31 -8 63 -10 71 -3 8 -7 41 -10 72 -5 54 -10 98 -20 178 -2 19 -7 64 -10
100 -3 36 -8 81 -10 100 -3 19 -7 69 -10 110 -3 41 -8 93 -10 115 -3 22 -7 72
-10 110 -3 39 -8 86 -10 105 -3 19 -7 62 -9 95 -10 129 -17 211 -21 240 -2 17
-7 67 -10 110 -5 66 -10 83 -28 98 -12 10 -29 24 -37 30 -34 28 -287 192 -412
268 -246 149 -351 189 -496 189 l-73 0 6 -47z"/>
<path d="M9129 13526 c-2 -2 -31 -6 -64 -9 -74 -7 -301 -65 -416 -107 -118
-43 -171 -78 -197 -131 -21 -41 -22 -55 -18 -184 3 -77 7 -149 9 -160 3 -11 8
-47 11 -80 4 -33 9 -71 11 -85 2 -14 6 -50 10 -81 3 -31 7 -65 9 -75 2 -11 9
-62 16 -114 6 -52 13 -106 15 -120 2 -14 6 -45 10 -70 3 -25 8 -56 10 -70 2
-14 7 -45 10 -70 4 -25 8 -56 10 -70 4 -23 25 -164 40 -265 3 -22 15 -94 26
-160 32 -200 38 -233 44 -265 3 -14 8 -41 11 -60 11 -72 56 -296 80 -403 14
-62 27 -123 30 -137 2 -14 7 -32 10 -40 6 -18 43 -200 50 -250 3 -19 7 -46 9
-60 3 -14 7 -43 10 -65 3 -22 8 -58 11 -80 3 -22 7 -51 9 -65 2 -14 7 -56 10
-95 4 -38 8 -81 10 -95 1 -14 6 -63 10 -110 4 -47 9 -103 11 -125 2 -22 6 -76
9 -120 3 -44 8 -100 10 -125 2 -25 7 -81 10 -125 7 -94 9 -113 16 -119 2 -2
63 -7 134 -11 220 -10 283 -18 495 -61 183 -38 275 -34 286 12 6 24 -2 252
-10 304 -3 14 -8 61 -11 105 -4 44 -9 91 -11 105 -1 14 -5 50 -8 80 -3 30 -8
71 -10 90 -3 19 -8 60 -11 90 -4 30 -10 82 -15 115 -13 88 -21 146 -26 178 -9
72 -15 114 -19 137 -3 14 -8 36 -10 50 -3 14 -12 61 -21 105 -19 100 -28 206
-20 238 8 33 49 43 85 21 85 -53 222 -267 464 -724 24 -47 56 -105 69 -130 14
-25 49 -90 78 -145 46 -87 114 -210 233 -425 94 -169 118 -196 307 -334 41
-31 80 -59 85 -63 40 -33 327 -216 411 -264 220 -123 230 -110 166 216 -11 55
-23 127 -27 160 -3 33 -8 71 -10 85 -2 14 -6 52 -10 85 -6 60 -12 119 -20 185
-2 19 -7 62 -10 95 -3 33 -8 78 -10 100 -2 22 -7 67 -10 100 -3 33 -8 78 -10
100 -2 22 -7 65 -10 95 -6 63 -7 69 -35 285 -11 88 -22 169 -24 180 -2 11 -7
40 -11 65 -4 25 -20 99 -37 165 -16 66 -32 131 -35 145 -2 14 -9 45 -14 70
-25 107 -77 379 -84 436 -4 27 -8 56 -10 64 -3 8 -7 33 -10 55 -4 22 -8 51
-10 65 -2 14 -7 48 -10 75 -6 50 -15 117 -20 145 -2 8 -6 38 -9 65 -4 28 -14
97 -22 155 -9 58 -18 119 -20 135 -3 27 -8 63 -19 135 -73 469 -79 572 -50
880 2 19 7 71 10 116 l7 80 -37 33 c-112 98 -136 102 -495 87 -230 -10 -320
-20 -406 -47 -71 -22 -73 -97 -19 -539 16 -130 24 -188 30 -230 2 -14 6 -47
10 -75 7 -58 23 -168 29 -205 5 -27 25 -155 32 -205 2 -16 12 -68 20 -115 31
-165 21 -287 -23 -305 -68 -25 -386 555 -670 1220 -102 240 -174 388 -225 463
-33 47 -90 81 -151 88 -22 3 -44 7 -48 9 -3 3 -8 3 -10 1z"/>
<path d="M4128 13476 c-1 -2 -46 -6 -98 -10 -113 -7 -139 -12 -205 -33 -77
-25 -208 -100 -395 -225 -69 -47 -201 -136 -295 -199 -170 -114 -307 -193
-318 -183 -9 9 -81 -33 -115 -67 -45 -46 -56 -87 -48 -184 4 -45 9 -93 11
-106 2 -13 6 -49 9 -79 4 -30 8 -66 11 -80 2 -14 7 -47 10 -75 3 -27 10 -77
15 -110 5 -33 12 -78 15 -100 3 -22 17 -105 31 -185 14 -80 27 -161 30 -180 3
-19 7 -42 9 -50 3 -8 12 -55 20 -105 20 -113 18 -105 50 -264 15 -74 29 -144
31 -155 2 -12 6 -32 9 -46 2 -14 7 -40 10 -57 3 -18 7 -45 10 -60 2 -16 7 -50
10 -78 4 -27 10 -77 15 -110 5 -33 12 -82 15 -110 4 -27 8 -61 10 -75 2 -14 7
-52 10 -85 4 -33 8 -71 10 -85 5 -33 23 -180 30 -255 4 -33 8 -71 10 -85 2
-14 7 -54 10 -90 3 -36 8 -76 10 -90 2 -14 7 -54 10 -90 4 -36 8 -81 11 -100
8 -69 19 -178 29 -290 10 -120 16 -185 20 -218 2 -21 6 -82 10 -137 8 -122 20
-139 87 -123 62 13 186 74 332 162 120 73 184 113 409 258 l97 63 -5 85 c-3
47 -8 105 -10 130 -3 25 -7 86 -10 135 -3 50 -7 110 -9 135 -23 286 -25 498
-7 553 19 56 45 69 137 66 88 -2 136 -15 219 -55 96 -48 117 -84 150 -264 3
-14 7 -36 9 -50 3 -14 8 -50 11 -81 3 -31 7 -66 10 -77 2 -11 7 -42 11 -69 7
-48 8 -59 20 -121 6 -33 8 -34 43 -27 20 4 101 31 181 61 228 87 255 86 489
-8 193 -77 225 -85 245 -57 14 21 14 63 1 224 -10 125 -37 284 -81 480 -8 39
-17 77 -19 85 -31 141 -94 319 -166 465 -93 192 -190 329 -364 515 -126 133
-147 173 -148 274 -1 65 11 214 18 226 20 34 28 442 12 592 -10 93 -33 245
-47 313 -22 106 -170 346 -290 471 -55 56 -95 71 -230 80 -41 3 -80 7 -87 9
-6 2 -13 2 -15 1z m-125 -1218 c57 -28 86 -124 82 -269 -3 -92 -16 -153 -48
-214 -23 -45 -38 -60 -85 -81 -49 -22 -94 2 -120 64 -21 49 -47 160 -57 247
-3 28 -8 59 -10 70 -2 11 -7 52 -10 90 -8 81 -3 89 61 103 67 15 146 11 187
-10z"/>
<path d="M6520 13450 c-18 -18 -19 -30 -15 -142 6 -130 7 -143 25 -308 6 -58
13 -125 16 -150 2 -25 6 -58 8 -75 5 -31 14 -104 22 -165 4 -37 10 -81 19
-145 3 -22 8 -58 10 -80 3 -22 7 -51 10 -65 2 -14 7 -45 10 -70 3 -25 8 -56
11 -70 2 -14 6 -43 9 -65 2 -22 7 -51 10 -65 2 -13 7 -42 10 -65 10 -71 26
-155 71 -382 47 -238 54 -277 59 -308 1 -11 5 -31 8 -45 4 -14 9 -41 12 -60 2
-19 9 -62 15 -95 6 -33 13 -73 15 -90 16 -111 37 -249 39 -263 2 -9 7 -44 11
-77 4 -32 9 -68 11 -78 3 -18 7 -50 19 -167 2 -25 7 -61 10 -80 6 -42 12 -93
21 -180 3 -36 8 -72 9 -80 2 -9 6 -47 9 -85 4 -39 8 -86 11 -105 2 -19 6 -62
10 -95 3 -33 7 -76 10 -95 2 -19 7 -57 10 -85 3 -27 8 -66 10 -85 2 -19 7 -57
10 -85 21 -193 35 -269 51 -285 12 -12 52 -15 232 -14 201 0 409 9 457 18 11
2 58 7 105 11 100 9 103 10 155 18 22 4 60 9 85 12 25 3 71 10 104 16 32 6 60
8 63 6 2 -3 6 -49 8 -104 2 -54 6 -150 9 -213 16 -343 20 -463 20 -750 1 -492
-23 -660 -95 -660 -29 0 -68 72 -110 202 -47 143 -97 266 -189 463 -15 33 -40
88 -54 123 -14 34 -37 85 -50 114 -13 29 -54 121 -91 203 -72 160 -156 330
-177 356 -27 33 -55 39 -165 35 -59 -3 -128 -7 -153 -10 -25 -3 -74 -8 -110
-11 -36 -3 -78 -8 -95 -10 -16 -3 -48 -7 -70 -9 -121 -14 -223 -32 -273 -47
-23 -8 -34 -18 -38 -37 -3 -15 -8 -33 -10 -40 -8 -27 -14 -228 -19 -647 -3
-236 -7 -448 -10 -470 -2 -22 -6 -83 -9 -135 -3 -52 -8 -104 -10 -115 -2 -11
-7 -51 -10 -90 -4 -38 -11 -88 -16 -110 -5 -22 -11 -58 -15 -80 -3 -22 -19
-100 -36 -173 -17 -74 -33 -145 -35 -158 -2 -13 -9 -35 -14 -49 -5 -14 -7 -25
-5 -25 2 0 0 -11 -5 -25 -5 -14 -12 -37 -15 -50 -3 -14 -7 -36 -10 -49 -25
-119 -182 -600 -265 -811 -63 -159 -191 -566 -214 -678 -3 -12 -16 -76 -30
-143 -40 -189 -40 -240 5 -302 20 -28 96 -36 364 -36 360 -1 486 20 531 89 29
44 49 133 79 345 17 119 114 455 182 630 8 19 -8 -28 153 453 77 229 146 430
155 446 19 38 44 63 56 55 27 -16 51 -119 74 -309 3 -27 8 -63 10 -80 2 -16 7
-57 10 -90 3 -33 8 -73 10 -90 2 -16 7 -66 10 -110 4 -44 8 -89 10 -101 2 -11
6 -65 10 -120 4 -54 8 -110 10 -123 2 -12 7 -60 10 -105 3 -44 8 -94 10 -111
2 -16 7 -61 10 -100 3 -38 8 -80 11 -93 2 -12 7 -44 10 -70 9 -80 35 -159 61
-184 23 -21 34 -23 141 -24 64 0 153 3 197 7 171 16 211 20 235 24 14 2 48 6
75 10 90 11 119 16 200 31 44 9 85 20 91 25 19 15 38 92 49 199 12 116 21 169
46 255 18 62 44 135 84 230 21 50 103 300 157 475 42 138 136 479 136 495 1 3
6 29 11 58 13 59 18 87 27 137 4 19 8 44 10 55 2 11 6 40 9 65 3 25 8 56 10
70 3 14 7 43 9 65 3 22 9 78 15 125 5 47 13 128 17 180 3 52 8 111 10 130 3
37 11 280 19 590 7 274 16 405 39 530 19 103 13 227 -14 287 -39 88 -88 123
-180 128 -85 4 -150 18 -310 66 -81 23 -137 37 -185 44 -5 1 -23 3 -40 4 -25
2 -17 7 45 30 41 15 85 34 96 41 31 19 54 63 62 117 12 90 6 383 -13 618 -2
28 -7 84 -10 125 -11 132 -21 189 -41 240 -20 51 -72 84 -114 75 -16 -4 -80
-27 -141 -51 -180 -73 -299 -95 -464 -86 -17 1 -50 14 -73 29 -33 22 -47 40
-63 83 -22 59 -27 148 -10 192 21 56 94 93 275 139 221 56 220 52 151 334 -20
83 -39 161 -41 175 -3 14 -7 31 -10 39 -2 8 -7 30 -10 50 -11 73 -57 238 -84
298 -35 76 -45 80 -228 77 -237 -3 -332 40 -332 151 0 34 26 94 52 122 22 24
105 59 160 68 139 23 162 26 301 40 18 2 61 7 97 11 81 9 110 12 133 13 17 1
18 12 12 189 -10 321 -15 422 -30 652 -8 122 -13 159 -31 236 l-18 73 -530 -1
c-292 0 -553 2 -581 5 -27 4 -75 9 -105 12 -76 8 -147 22 -275 55 -156 41
-200 45 -225 20z"/>
<path d="M11249 13323 c-9 -18 -14 -58 -14 -127 1 -91 12 -275 20 -315 1 -9 6
-50 9 -91 4 -41 9 -86 11 -100 4 -25 9 -61 20 -159 4 -30 8 -63 11 -74 2 -10
6 -45 9 -76 4 -31 10 -81 15 -111 5 -30 12 -75 15 -100 3 -25 8 -56 10 -70 3
-14 7 -45 10 -70 3 -25 8 -56 10 -70 2 -14 11 -70 20 -125 9 -55 18 -111 20
-125 3 -14 9 -52 15 -85 5 -33 12 -71 15 -85 3 -14 7 -38 9 -55 3 -16 17 -95
31 -175 15 -80 29 -156 32 -170 2 -14 13 -68 24 -120 26 -127 37 -188 44 -230
13 -82 16 -96 20 -110 2 -8 6 -37 10 -65 3 -27 7 -61 10 -75 9 -46 14 -84 25
-175 6 -49 13 -103 15 -120 5 -35 15 -124 20 -176 2 -20 6 -65 10 -100 3 -35
8 -84 10 -109 2 -25 7 -70 10 -100 3 -30 7 -86 10 -123 3 -37 7 -82 9 -100 2
-18 7 -68 11 -112 4 -44 9 -87 10 -95 2 -8 6 -49 9 -90 4 -41 9 -86 11 -100 2
-14 7 -50 10 -80 12 -109 37 -235 50 -256 23 -36 223 -95 435 -129 19 -3 60
-10 90 -15 55 -9 86 -13 230 -29 82 -9 258 -7 330 4 72 11 217 62 303 107 237
123 428 332 576 625 78 156 158 366 172 448 1 6 6 21 11 35 30 80 43 377 24
563 -3 31 -8 83 -11 115 -8 84 -34 293 -40 322 -3 14 -8 41 -11 60 -15 98 -72
298 -119 420 -40 105 -45 117 -79 193 -14 32 -26 60 -26 63 0 14 -129 271
-178 354 -120 205 -210 319 -401 511 -162 162 -230 219 -371 315 -259 175
-569 288 -850 309 -222 17 -265 33 -445 161 -109 78 -171 114 -196 114 -8 0
-22 -12 -30 -27z m1309 -1827 c113 -71 272 -309 391 -584 199 -461 205 -775
18 -923 -125 -100 -234 -115 -299 -43 -28 32 -55 145 -73 304 -3 30 -10 82
-15 115 -5 33 -11 87 -15 120 -3 33 -8 71 -10 85 -2 14 -6 48 -9 75 -4 28 -8
61 -11 75 -2 14 -7 48 -10 75 -3 28 -8 57 -10 65 -2 8 -6 38 -10 65 -8 68 -11
88 -40 251 -46 255 -49 309 -19 331 27 20 70 16 112 -11z"/>
<path d="M14445 13028 c-238 -27 -446 -143 -564 -313 -59 -85 -112 -225 -127
-334 -3 -25 -8 -55 -11 -66 -12 -47 -10 -346 2 -440 15 -111 40 -241 57 -295
61 -192 140 -361 209 -445 35 -44 102 -118 202 -229 16 -17 151 -155 300 -306
306 -310 371 -381 422 -466 81 -134 82 -265 3 -314 -28 -18 -44 -21 -103 -17
-87 6 -176 41 -292 113 -88 56 -125 85 -275 214 -102 88 -172 130 -189 113
-15 -15 -12 -234 5 -378 3 -27 8 -79 11 -115 3 -36 7 -76 10 -90 2 -14 7 -52
10 -85 8 -74 14 -121 20 -154 2 -14 9 -57 15 -96 5 -38 12 -81 14 -95 3 -14 7
-43 10 -65 14 -92 60 -283 78 -321 23 -51 51 -64 208 -100 126 -28 124 -28
290 -80 310 -97 344 -105 458 -110 75 -3 102 0 143 17 198 77 415 358 519 668
26 76 41 148 65 306 10 65 14 444 5 525 -4 41 -11 102 -14 134 -13 123 -69
336 -106 407 -33 63 -195 243 -390 434 -448 440 -573 583 -650 747 -36 75 -39
138 -10 185 30 50 54 58 103 34 23 -11 53 -31 67 -43 14 -13 63 -57 110 -98
47 -41 87 -78 90 -81 13 -16 125 -89 136 -89 40 0 39 222 -2 505 -8 55 -17
116 -20 135 -2 19 -9 60 -14 90 -5 30 -11 73 -15 95 -3 22 -7 51 -10 65 -3 14
-7 36 -10 50 -13 72 -51 163 -82 200 -68 79 -311 174 -477 186 -44 3 -92 6
-106 8 -14 1 -56 -1 -95 -6z"/>
<path d="M2085 12784 c-503 -258 -732 -348 -942 -369 -32 -3 -65 -8 -73 -10
-8 -2 -82 -7 -165 -11 -82 -3 -175 -7 -205 -9 -30 -2 -68 -3 -84 -4 l-29 -1 6
-77 c5 -66 21 -158 41 -248 3 -11 12 -54 21 -95 10 -41 23 -100 30 -130 76
-320 95 -403 104 -455 6 -33 13 -71 16 -85 7 -32 26 -147 30 -183 21 -150 24
-176 30 -237 3 -30 8 -71 10 -90 3 -19 7 -60 10 -90 7 -76 16 -150 20 -180 2
-14 7 -52 10 -85 3 -33 8 -71 10 -85 2 -14 6 -47 9 -75 11 -93 24 -204 31
-255 3 -19 7 -53 10 -75 17 -140 26 -203 29 -225 2 -14 7 -52 11 -85 4 -32 8
-66 10 -75 1 -8 6 -42 9 -75 4 -33 9 -71 11 -85 4 -26 9 -70 21 -175 3 -33 8
-73 10 -90 19 -142 21 -279 14 -695 -2 -129 5 -164 36 -191 31 -27 63 -29 112
-7 26 11 99 39 162 63 152 57 285 116 387 171 104 56 166 80 223 88 64 8 80
32 80 115 0 65 -15 191 -34 286 -2 11 -7 43 -10 70 -15 103 -17 121 -22 148
-2 15 -7 51 -9 80 -5 49 -10 92 -20 177 -3 31 -14 147 -31 335 -20 223 -25
276 -30 325 -4 43 -3 46 28 59 37 16 177 81 318 148 52 25 114 54 138 64 37
16 46 28 44 59 0 3 -3 64 -7 137 -3 73 -8 140 -9 150 -2 10 -7 45 -10 78 -4
33 -9 71 -11 85 -7 47 -17 115 -21 135 -2 10 -6 35 -9 55 -14 95 -46 223 -61
248 -20 31 -37 28 -108 -22 -84 -60 -260 -145 -318 -152 -86 -12 -114 31 -110
163 3 72 27 127 76 169 54 47 237 134 459 220 l178 69 -5 65 c-3 36 -8 110
-11 165 -3 55 -8 127 -10 160 -3 33 -8 91 -10 130 -3 38 -7 81 -10 95 -2 14
-7 50 -10 80 -3 30 -8 62 -10 70 -2 8 -7 31 -10 50 -9 57 -44 180 -60 208 -7
15 -31 45 -52 68 l-38 41 -200 -103z"/>
<path d="M4477 9314 c-1 -1 -20 -5 -42 -8 -85 -13 -114 -27 -340 -155 -225
-129 -265 -162 -265 -224 0 -23 4 -58 9 -77 10 -37 17 -92 26 -230 4 -47 8
-110 11 -140 26 -344 25 -1147 -1 -1275 -2 -11 -7 -42 -10 -70 -9 -82 -15
-128 -20 -155 -3 -14 -8 -42 -11 -64 -7 -45 -9 -56 -29 -156 -8 -41 -17 -84
-19 -95 -6 -33 -94 -365 -115 -435 -44 -149 -105 -338 -171 -535 -96 -283
-235 -710 -244 -750 -1 -5 -15 -50 -30 -100 -26 -84 -77 -262 -89 -312 -3 -12
1 -30 8 -39 12 -16 16 -17 79 -1 47 12 96 36 173 85 143 91 255 157 493 289
270 151 421 266 469 361 12 23 33 95 46 160 27 128 43 183 116 407 26 83 75
242 109 355 78 265 133 407 171 443 55 51 151 26 298 -77 169 -118 196 -104
236 119 7 41 25 177 40 310 3 28 8 64 10 80 22 169 26 284 11 334 -16 52 -58
87 -177 146 -254 127 -319 196 -320 339 -1 61 12 103 35 118 47 31 206 -34
476 -194 175 -104 275 -158 292 -158 39 0 60 55 75 200 6 54 8 679 3 895 l-1
60 -134 93 c-190 132 -322 210 -540 322 -255 130 -290 140 -478 138 -81 -1
-149 -3 -150 -4z"/>
<path d="M9844 8978 c-96 -98 -157 -189 -230 -342 -57 -120 -62 -135 -130
-331 -40 -114 -118 -393 -131 -465 -2 -14 -8 -41 -13 -60 -5 -19 -11 -52 -14
-74 -4 -21 -8 -41 -10 -45 -2 -3 -7 -28 -10 -54 -4 -26 -11 -71 -17 -100 -6
-29 -12 -65 -14 -82 -2 -16 -6 -46 -9 -65 -11 -73 -14 -97 -20 -155 -4 -33 -9
-78 -12 -100 -31 -255 -36 -890 -9 -1065 38 -242 103 -351 441 -745 216 -251
394 -402 592 -499 94 -47 161 -70 232 -82 183 -29 395 34 550 166 85 71 244
234 325 331 135 162 183 221 257 320 82 110 187 265 217 319 207 383 337 851
343 1240 2 168 -51 380 -160 640 -62 149 -212 428 -264 495 -5 6 -31 41 -59
78 -28 37 -74 91 -102 119 -193 191 -836 585 -1017 623 -19 5 -174 10 -345 12
l-310 5 -81 -84z m842 -1823 c65 -27 141 -92 165 -141 20 -43 21 -52 11 -101
-6 -30 -25 -82 -43 -116 -35 -69 -133 -209 -173 -246 -24 -22 -27 -23 -50 -8
-41 27 -93 99 -133 182 -44 94 -48 152 -15 260 51 167 122 219 238 170z"/>
<path d="M16668 8585 c-1 -1 -46 -6 -98 -10 -119 -8 -238 -28 -359 -60 -72
-18 -123 -37 -199 -71 -29 -13 -55 -24 -57 -24 -3 0 -35 -14 -71 -31 l-67 -32
7 -56 c3 -31 8 -69 11 -86 26 -167 27 -750 0 -1105 -2 -30 -7 -95 -10 -145 -4
-49 -8 -92 -10 -95 -1 -3 -6 -41 -10 -85 -4 -44 -8 -82 -10 -85 -2 -3 -6 -25
-9 -50 -8 -60 -13 -88 -36 -205 -11 -55 -22 -109 -24 -120 -12 -61 -90 -357
-121 -460 -20 -66 -43 -140 -50 -165 -7 -25 -44 -144 -83 -265 -86 -270 -114
-363 -192 -625 -130 -433 -229 -776 -235 -810 -3 -14 -9 -41 -15 -60 -14 -50
-13 -58 13 -62 40 -6 130 23 252 82 331 160 729 319 843 336 20 3 44 7 52 9
15 4 58 10 150 20 25 3 63 7 85 10 22 3 67 7 100 10 130 12 344 40 375 50 9 3
27 35 42 72 37 97 147 438 203 633 63 215 116 411 121 443 l7 37 -44 1 c-81 2
-323 -2 -394 -6 -290 -17 -281 -17 -282 7 -9 192 -5 254 15 294 40 78 104 95
369 98 89 1 164 4 165 6 4 5 67 250 73 280 2 8 8 33 14 55 5 22 12 54 15 70 3
17 8 46 11 65 3 19 8 42 10 50 2 8 7 39 10 69 4 30 8 62 10 73 16 79 24 317
13 348 -8 21 -12 22 -71 16 -35 -3 -98 -15 -142 -26 -43 -11 -92 -20 -108 -20
-47 0 -94 38 -125 100 -23 46 -27 67 -26 135 1 125 32 167 143 191 55 12 278
11 351 -1 274 -47 297 -46 326 13 17 34 19 65 19 342 0 262 -6 448 -20 590 -2
19 -6 73 -10 120 -4 46 -8 88 -11 91 -4 7 -31 13 -139 34 -31 6 -770 16 -777
10z"/>
<path d="M2687 8564 c-1 -1 -24 -5 -51 -8 -27 -4 -52 -9 -55 -11 -3 -1 -23 -6
-43 -9 -21 -3 -85 -17 -144 -31 -415 -101 -520 -176 -968 -695 -60 -70 -241
-297 -306 -385 -65 -88 -266 -387 -341 -507 -63 -102 -279 -459 -315 -521 -21
-38 -46 -81 -55 -95 -44 -73 -149 -265 -177 -324 -33 -69 -115 -298 -107 -298
3 0 0 -12 -6 -27 -6 -15 -35 -116 -65 -224 -59 -212 -57 -199 -39 -434 3 -33
7 -94 10 -135 3 -41 7 -93 10 -115 2 -22 7 -78 10 -125 5 -75 14 -156 31 -285
53 -389 165 -612 354 -701 94 -45 150 -56 285 -59 254 -6 372 35 790 275 45
25 61 37 141 106 166 143 525 499 654 650 14 16 48 56 76 89 112 132 292 388
419 600 57 94 208 353 218 375 4 8 13 24 20 35 7 11 42 75 80 141 194 348 322
610 403 824 39 100 91 314 105 425 18 143 15 606 -4 700 -3 11 -7 37 -11 57
-10 53 -44 126 -119 255 -168 286 -285 383 -523 432 -82 17 -267 34 -277 25z
m-54 -1354 c26 -29 29 -39 25 -80 -4 -36 -14 -59 -41 -91 -19 -24 -78 -127
-130 -229 -51 -102 -117 -225 -145 -273 -29 -49 -52 -90 -52 -93 0 -8 -303
-510 -375 -621 -136 -208 -343 -425 -648 -680 -210 -175 -259 -199 -308 -147
-20 21 -24 36 -24 87 0 125 82 298 335 707 134 216 459 704 561 840 267 358
460 544 627 607 21 7 61 12 91 10 47 -3 59 -9 84 -37z"/>
<path d="M12527 8492 c-32 -36 -41 -117 -52 -452 -2 -80 -7 -179 -10 -220 -3
-41 -8 -106 -10 -145 -7 -99 -14 -161 -26 -230 -6 -33 -13 -100 -15 -150 -2
-49 -6 -101 -9 -115 -3 -14 -7 -43 -11 -65 -3 -22 -12 -68 -19 -101 -8 -34
-16 -73 -19 -85 -2 -13 -9 -44 -15 -69 -5 -25 -12 -56 -14 -70 -3 -14 -17 -72
-32 -130 -15 -58 -28 -109 -29 -115 -7 -29 -36 -121 -98 -305 -192 -568 -314
-974 -419 -1390 -38 -151 -87 -327 -109 -390 -51 -148 -47 -173 26 -191 38 -9
506 -5 629 5 179 15 271 26 327 42 19 6 40 66 58 169 5 33 12 69 14 80 2 11 7
45 11 75 9 73 50 268 85 410 64 255 101 378 230 761 134 397 208 634 234 749
2 8 9 35 16 60 7 25 14 56 17 70 2 14 8 41 13 60 5 19 11 46 14 60 2 14 11 63
20 110 22 123 27 150 32 195 2 22 6 56 8 75 3 19 7 67 11 105 13 166 16 202
20 235 2 19 7 64 10 100 3 36 8 81 10 100 2 19 7 60 10 90 5 53 22 189 30 240
19 128 24 255 12 293 -11 34 -50 62 -102 72 -22 5 -47 10 -55 11 -8 2 -37 6
-65 9 -27 4 -61 8 -75 10 -14 2 -65 6 -115 10 -49 3 -110 7 -135 10 -25 2 -83
7 -130 10 -47 4 -103 9 -125 11 -106 13 -133 12 -148 -4z"/>
<path d="M14518 8355 c-2 -2 -28 -5 -58 -9 -165 -17 -249 -61 -370 -193 -86
-94 -106 -122 -160 -224 -76 -145 -143 -372 -165 -554 -3 -27 -8 -63 -10 -80
-17 -129 -22 -378 -11 -490 23 -218 76 -384 200 -625 237 -463 268 -538 268
-648 -1 -74 -6 -95 -36 -145 -47 -79 -116 -141 -176 -157 -108 -29 -340 137
-485 346 -29 42 -83 94 -98 94 -45 0 -93 -86 -146 -260 -18 -58 -36 -116 -41
-130 -42 -117 -160 -616 -184 -775 -7 -43 -16 -98 -23 -130 -2 -11 -6 -50 -9
-86 -6 -65 -5 -66 23 -77 32 -13 128 -40 188 -52 22 -5 47 -11 55 -14 21 -7
61 -15 155 -30 102 -16 249 -13 470 9 28 3 88 7 135 10 205 13 310 29 391 62
233 93 513 499 719 1043 118 311 179 521 196 673 3 29 8 63 10 77 6 34 5 212
-1 335 -3 71 -9 103 -19 111 -34 24 -240 218 -366 344 -264 262 -293 369 -143
527 49 51 85 71 128 69 44 -2 81 -21 214 -116 46 -33 92 -60 101 -60 20 0 44
46 54 100 3 19 8 46 11 60 14 70 27 170 41 309 2 20 6 184 9 364 l5 328 -434
-2 c-239 0 -436 -2 -438 -4z"/>
</g>
</svg>
