<?xml version="1.0" standalone="no"?>
<!DOCTYPE svg PUBLIC "-//W3C//DTD SVG 20010904//EN"
 "http://www.w3.org/TR/2001/REC-SVG-20010904/DTD/svg10.dtd">
<svg version="1.0" xmlns="http://www.w3.org/2000/svg"
 width="475.000000pt" height="475.000000pt" viewBox="0 0 475.000000 475.000000"
 preserveAspectRatio="xMidYMid meet">
<metadata>
Created by potrace 1.11, written by Peter Selinger 2001-2013
</metadata>
<g transform="translate(0.000000,475.000000) scale(0.100000,-0.100000)"
fill="#000000" stroke="none">
<path d="M120 2375 l0 -2375 2250 0 2250 0 0 2375 0 2375 -2250 0 -2250 0 0
-2375z m2246 1711 c-43 -210 -56 -430 -56 -954 0 -428 -2 -473 -16 -479 -9 -3
-23 -2 -32 3 -8 5 -58 88 -111 184 -100 181 -126 223 -231 374 -107 156 -307
496 -267 456 8 -8 29 -44 48 -80 18 -36 36 -67 39 -70 10 -9 41 -65 47 -82 3
-10 9 -18 13 -18 4 0 13 -13 20 -30 7 -16 17 -30 22 -30 5 0 6 -4 3 -10 -3 -5
-1 -10 4 -10 6 0 11 -7 11 -15 0 -8 4 -15 10 -15 5 0 16 -15 25 -34 9 -18 25
-43 35 -54 11 -12 20 -26 20 -32 0 -5 5 -10 10 -10 6 0 10 -5 10 -10 0 -6 9
-20 20 -32 11 -12 26 -34 32 -50 7 -15 16 -28 20 -28 5 0 8 -6 8 -14 0 -8 3
-16 8 -18 4 -1 20 -28 36 -58 16 -30 41 -78 56 -107 15 -29 31 -49 35 -45 5 4
5 1 1 -5 -4 -7 -2 -13 3 -13 6 0 10 -3 9 -7 -2 -5 11 -33 28 -63 21 -36 38
-56 50 -56 18 0 19 20 21 516 1 283 5 542 8 575 3 33 8 89 10 125 5 65 10 109
21 185 3 22 6 50 7 62 1 12 5 19 10 16 5 -3 8 3 6 13 -1 11 1 27 6 37 4 9 5
24 1 32 -3 8 -2 15 3 15 5 0 8 106 7 236 0 130 1 238 4 241 3 2 6 -113 8 -258
2 -245 1 -270 -22 -383z m360 382 c-1 -117 -5 -219 -9 -225 -5 -8 -3 -13 5
-13 8 0 9 -3 3 -8 -6 -4 -11 -18 -12 -32 -2 -28 -7 -58 -18 -110 -4 -19 -8
-43 -9 -52 -3 -22 -16 -36 -16 -17 0 8 5 32 11 54 6 22 14 164 17 315 6 235
12 300 26 300 1 0 2 -96 2 -212z m-1505 -248 c5 0 8 -5 7 -12 -2 -6 8 -15 22
-19 14 -4 21 -7 16 -8 -11 -1 64 -71 77 -71 4 0 6 -4 3 -8 -5 -9 35 -48 46
-45 4 2 9 -6 13 -16 8 -26 51 -71 61 -63 4 4 4 2 1 -4 -4 -6 5 -24 18 -40 14
-16 25 -33 25 -37 0 -5 5 -5 12 -1 6 4 8 3 5 -3 -4 -6 5 -23 18 -39 14 -16 25
-35 25 -41 0 -7 4 -13 8 -13 5 0 15 -12 23 -27 8 -16 20 -34 27 -42 7 -7 10
-16 7 -20 -4 -3 -12 1 -18 11 -7 9 -41 58 -76 108 -67 95 -211 249 -315 337
-45 37 -58 54 -53 67 6 16 8 16 23 2 8 -9 20 -16 25 -16z m2749 -173 c0 -1
-36 -38 -80 -82 -44 -44 -80 -76 -80 -73 0 4 34 41 75 83 66 66 85 82 85 72z
m-1295 -76 c-8 -14 -18 -102 -19 -163 -1 -32 -3 -58 -6 -58 -5 0 -6 -1041 -1
-1076 2 -21 36 -11 71 20 32 28 32 27 -5 -12 -41 -44 -64 -52 -85 -27 -19 23
-7 1123 14 1230 8 44 15 86 15 93 1 7 6 10 11 7 6 -4 8 -10 5 -14z m1555 -127
c0 -3 -41 -45 -91 -95 -50 -49 -87 -89 -84 -89 4 0 -7 -15 -24 -32 -44 -47
-52 -56 -102 -120 -24 -32 -47 -58 -52 -58 -4 0 -5 -4 -2 -10 3 -5 1 -10 -4
-10 -6 0 -11 -5 -11 -11 0 -7 -9 -20 -21 -30 -11 -9 -20 -20 -19 -24 2 -8 -30
-53 -52 -73 -9 -9 -14 -20 -11 -25 3 -6 1 -7 -5 -3 -10 6 -17 -7 -9 -18 1 -2
-18 -20 -41 -40 -24 -20 -42 -36 -39 -36 2 0 -24 -28 -57 -63 -34 -34 -63 -62
-66 -61 -3 0 -15 -10 -27 -23 -12 -13 -20 -23 -17 -23 3 0 -13 -18 -35 -40
-22 -22 -37 -40 -35 -40 3 0 -1 -7 -10 -15 -8 -8 -20 -15 -26 -15 -6 0 -8 -4
-5 -10 3 -5 1 -10 -6 -10 -14 0 -79 -56 -73 -63 3 -2 -7 -7 -21 -11 -14 -4
-25 -10 -25 -15 0 -4 -11 -20 -25 -35 -14 -15 -25 -25 -25 -23 0 2 -24 -19
-53 -47 -29 -28 -51 -54 -50 -57 1 -3 -9 -12 -22 -19 -13 -7 -22 -16 -20 -20
2 -4 -9 -20 -25 -35 -16 -15 -27 -33 -23 -38 3 -6 1 -7 -4 -4 -6 4 -13 -6 -15
-23 -2 -16 0 -31 6 -33 6 -2 352 -3 769 -2 416 0 757 -3 757 -7 0 -5 -348 -8
-774 -8 -843 0 -806 -3 -792 55 4 14 70 89 150 168 79 78 234 232 345 342 110
110 227 235 259 279 150 205 238 312 361 438 120 124 151 151 151 132z m-2935
-198 c23 -34 93 -149 155 -256 61 -107 142 -238 180 -290 37 -52 103 -156 146
-230 42 -74 106 -184 140 -243 61 -104 88 -169 76 -181 -10 -11 -114 -7 -107
4 3 5 23 8 44 6 60 -6 55 12 -76 241 -34 59 -66 113 -70 118 -10 11 -20 36
-21 49 0 5 -5 12 -10 15 -5 3 -31 43 -57 88 -26 46 -54 88 -61 94 -8 6 -14 17
-14 23 0 6 -16 29 -35 51 -19 22 -35 44 -35 48 0 5 -6 15 -12 22 -29 32 -36
43 -54 81 -10 21 -20 41 -23 44 -7 5 -23 34 -55 93 -11 20 -24 37 -28 37 -5 0
-6 5 -3 10 3 6 1 10 -5 10 -6 0 -9 4 -6 9 3 5 -2 19 -12 32 -10 13 -30 44 -43
69 -13 25 -32 54 -41 64 -10 11 -18 23 -18 28 0 8 -20 34 -50 67 -40 45 -36
50 5 7 26 -28 66 -77 90 -110z m2186 -169 c-10 -9 -11 -8 -5 6 3 10 9 15 12
12 3 -3 0 -11 -7 -18z m-41 -50 c0 -2 -9 -12 -20 -22 -24 -21 -27 -14 -4 9 15
15 24 20 24 13z m-100 -112 c-19 -19 -37 -35 -41 -35 -4 0 9 17 30 38 20 20
38 36 40 34 3 -1 -11 -18 -29 -37z m-125 -125 c-43 -44 -80 -78 -82 -76 -4 3
149 156 156 156 3 0 -30 -36 -74 -80z m-95 -93 c0 -2 -42 -41 -92 -87 -90 -82
-97 -79 -9 4 24 22 53 51 65 62 19 20 36 29 36 21z m-220 -222 c-19 -19 -37
-35 -41 -35 -4 0 9 17 29 38 20 21 39 37 41 35 3 -2 -11 -19 -29 -38z m-95
-95 c-27 -27 -50 -48 -52 -46 -4 4 88 96 96 96 3 0 -17 -22 -44 -50z m-2550
-184 c22 -1 42 -4 45 -7 3 -4 45 -10 93 -13 49 -3 92 -8 95 -10 4 -2 36 -7 72
-11 36 -3 83 -10 105 -15 l40 -9 -45 3 c-113 9 -516 59 -523 66 -4 4 11 5 35
2 24 -3 61 -6 83 -6z m532 -82 c-1 -1 -20 1 -42 4 -35 5 -37 6 -15 12 14 3 33
2 42 -4 9 -6 16 -11 15 -12z m73 -4 c13 -9 13 -10 0 -9 -8 1 -26 5 -40 9 l-25
8 25 1 c14 0 32 -4 40 -9z m109 -16 c2 -2 -10 -4 -27 -4 -17 0 -34 5 -37 10
-6 10 54 5 64 -6z m138 -8 c11 -10 -101 -6 -117 4 -10 7 4 9 48 6 35 -2 66 -7
69 -10z m322 -4 c7 -1 19 3 27 9 8 6 14 7 14 2 0 -13 32 -13 48 0 7 6 12 6 12
0 0 -13 32 -13 48 0 7 6 12 6 12 0 0 -13 32 -13 48 0 7 6 12 6 12 0 0 -13 32
-13 48 0 8 6 12 6 12 -2 0 -7 8 -10 18 -7 9 3 24 1 32 -4 10 -6 -97 -10 -307
-10 -179 0 -324 4 -327 9 -4 5 52 8 130 7 75 -1 138 3 141 7 3 5 8 5 12 1 3
-5 12 -10 20 -12z m391 -12 c12 -8 9 -10 -12 -10 -16 0 -28 5 -28 10 0 13 20
13 40 0z m45 -10 c3 -5 -1 -10 -10 -10 -9 0 -13 5 -10 10 3 6 8 10 10 10 2 0
7 -4 10 -10z m-1440 -215 c110 -14 243 -32 295 -40 237 -37 373 -47 694 -50
181 -3 354 -9 384 -15 31 -5 85 -10 121 -10 101 0 172 -11 178 -27 5 -14 -106
-138 -115 -129 -2 2 20 27 49 55 29 28 49 54 45 58 -11 11 -34 14 -146 19 -58
2 -121 7 -140 10 -19 3 -54 7 -76 8 -23 2 -46 6 -51 9 -5 3 -30 4 -54 2 -105
-10 -466 -4 -634 11 -81 7 -280 32 -325 40 -37 7 -160 24 -168 23 -4 -1 -9 0
-12 1 -11 4 -47 10 -75 12 -16 1 -35 5 -42 10 -6 5 -14 5 -17 -1 -4 -6 -19 -6
-39 -1 -27 8 -103 19 -154 22 -7 1 -10 5 -7 10 9 13 79 9 289 -17z m4150 -125
c11 -5 18 -9 15 -10 -3 -1 -415 -3 -917 -3 -501 -1 -914 -5 -917 -8 -4 -4 5
-17 19 -30 13 -13 25 -28 25 -33 0 -5 11 -19 25 -32 14 -13 25 -28 25 -34 0
-6 5 -8 10 -5 6 3 10 1 10 -6 0 -7 11 -24 24 -38 67 -71 86 -95 86 -105 0 -13
-6 -6 -120 129 -51 61 -102 120 -113 132 -16 19 -18 25 -7 38 11 13 117 15
914 14 495 0 910 -4 921 -9z m-2605 -153 c0 -1 -28 -29 -62 -62 -35 -33 -51
-47 -38 -31 41 49 100 103 100 93z m-155 -147 c-10 -11 -22 -20 -27 -20 -10 0
24 38 36 39 5 1 1 -8 -9 -19z m483 -104 c2 -49 -1 -93 -5 -97 -5 -5 -8 11 -7
34 0 23 -4 48 -9 55 -6 7 -6 12 0 12 11 0 12 49 1 51 -4 1 -14 2 -20 3 -13 2
-33 -14 -91 -70 -48 -47 -77 -83 -77 -95 0 -6 -5 -9 -12 -7 -6 2 -31 -16 -55
-41 -23 -25 -43 -42 -43 -37 0 5 -8 0 -17 -10 -22 -24 -140 -104 -153 -104 -6
0 -10 -5 -10 -11 0 -5 -4 -8 -9 -4 -6 3 -15 -4 -21 -15 -6 -11 -15 -20 -21
-20 -12 0 -24 -10 -84 -67 -25 -24 -48 -43 -51 -43 -3 0 -27 -20 -52 -45 -78
-75 -97 -91 -115 -98 -11 -4 -15 -12 -11 -18 4 -8 3 -9 -4 -5 -7 4 -12 2 -12
-3 0 -6 -5 -11 -11 -11 -10 0 -23 -10 -80 -62 -10 -10 -19 -15 -19 -11 0 4 -8
-2 -19 -13 -28 -28 -60 -54 -69 -54 -4 0 -15 -8 -24 -17 -26 -28 -48 -44 -48
-36 0 4 -13 -6 -28 -23 -15 -17 -34 -28 -41 -26 -8 3 -11 0 -7 -7 4 -6 2 -11
-4 -11 -6 0 -39 -19 -73 -42 -34 -24 -64 -43 -67 -44 -22 -3 -58 -29 -53 -37
3 -6 1 -7 -5 -3 -6 3 -13 2 -17 -4 -3 -5 -15 -10 -26 -10 -10 0 -19 -4 -19 -8
0 -5 -19 -16 -42 -27 -24 -10 -46 -23 -49 -28 -4 -5 -15 -7 -25 -3 -17 7 -16
10 13 35 18 15 83 54 145 86 210 111 507 327 773 563 69 61 174 143 233 183
146 98 142 95 274 225 91 91 122 115 140 112 22 -3 23 -8 26 -92z m712 68 c0
-8 4 -14 9 -14 5 0 17 -13 28 -29 10 -15 53 -75 96 -132 43 -57 85 -114 94
-125 9 -12 15 -24 15 -28 -1 -3 9 -17 22 -32 44 -49 53 -61 76 -103 13 -22 27
-41 32 -41 4 0 8 -4 8 -9 0 -12 61 -105 72 -109 4 -2 8 -8 8 -12 0 -8 57 -99
69 -110 4 -3 12 -17 20 -32 8 -16 18 -28 23 -28 5 0 6 -4 3 -10 -3 -5 -2 -10
4 -10 6 0 18 -16 27 -35 9 -19 20 -35 25 -35 5 0 9 -9 9 -21 0 -11 5 -17 10
-14 6 3 10 1 10 -4 0 -6 18 -40 40 -76 22 -36 40 -70 40 -75 0 -6 5 -10 12
-10 6 0 9 -3 5 -6 -3 -4 10 -35 29 -70 19 -35 33 -68 29 -73 -3 -5 -1 -12 4
-16 14 -8 38 -59 46 -95 15 -68 -41 -8 -66 70 -6 19 -44 103 -84 185 -95 196
-450 734 -681 1031 -35 45 -60 84 -57 87 9 9 23 -2 23 -19z m-1410 -119 c-7
-8 -17 -15 -23 -15 -6 0 -2 7 9 15 25 19 30 19 14 0z m-50 -40 c-7 -9 -15 -13
-19 -10 -3 3 1 10 9 15 21 14 24 12 10 -5z m1212 -72 c35 -38 83 -95 106 -128
22 -33 103 -145 178 -250 155 -216 306 -441 353 -530 18 -33 26 -51 17 -40 -8
11 -21 27 -28 35 -7 8 -11 15 -8 15 7 0 -34 65 -42 65 -4 0 -8 4 -8 9 0 10
-59 103 -89 141 -12 14 -21 29 -21 33 0 5 -6 14 -12 21 -7 8 -20 24 -28 36 -8
13 -36 52 -62 87 -26 34 -45 63 -42 63 3 0 -1 6 -8 14 -31 32 -58 67 -58 75 0
4 -9 16 -20 26 -11 10 -20 24 -20 31 0 7 -8 18 -17 23 -10 6 -14 11 -9 11 5 0
0 8 -10 18 -21 18 -55 68 -53 78 0 3 -11 16 -25 29 -14 13 -26 28 -26 32 0 13
-46 63 -54 58 -3 -3 -4 -2 -2 1 5 7 -42 54 -54 54 -6 0 -10 5 -10 10 0 6 -6
10 -14 10 -10 0 -13 -24 -12 -115 1 -73 -3 -114 -9 -112 -10 4 -20 230 -11
254 10 25 33 12 98 -54z m-1267 28 c-3 -6 -11 -11 -16 -11 -5 0 -4 6 3 14 14
16 24 13 13 -3z m786 -4 c-10 -9 -11 -8 -5 6 3 10 9 15 12 12 3 -3 0 -11 -7
-18z m-841 -42 c-13 -14 -26 -22 -29 -19 -3 3 5 14 19 24 34 27 38 25 10 -5z
m840 16 c0 -6 -4 -12 -8 -15 -5 -3 -9 1 -9 9 0 8 4 15 9 15 4 0 8 -4 8 -9z
m-28 -87 c-6 -11 -11 -13 -16 -5 -4 6 -2 11 3 11 6 0 11 8 12 18 0 9 3 12 5 5
3 -7 1 -20 -4 -29z m-892 1 c-13 -14 -26 -23 -28 -20 -7 6 29 44 42 44 5 1 -1
-10 -14 -24z m-74 -63 c-16 -15 -25 -21 -21 -13 12 21 39 48 44 44 3 -2 -8
-16 -23 -31z m948 -16 c-3 -15 -8 -25 -11 -23 -2 3 -1 17 3 31 3 15 8 25 11
23 2 -3 1 -17 -3 -31z m-984 -9 c0 -2 -11 -14 -24 -26 -18 -17 -26 -19 -31
-10 -5 7 -4 10 2 6 6 -4 18 2 28 13 17 19 25 24 25 17z m960 -74 c-11 -17 -11
-17 -6 0 3 10 7 26 7 35 1 15 2 15 6 0 2 -10 -1 -25 -7 -35z m-1030 11 c-8 -8
-23 -20 -34 -25 -13 -7 -9 -1 9 15 34 29 43 33 25 10z m1535 -593 c0 -462 -3
-577 -12 -569 -10 8 -13 137 -13 584 0 455 3 572 13 569 9 -4 12 -130 12 -584z
m-524 479 c-8 -44 -18 -80 -21 -80 -4 0 -1 30 7 68 17 77 21 92 26 92 2 0 -3
-36 -12 -80z m-25 -162 c-11 -109 -45 -301 -56 -312 -5 -5 -5 7 1 28 6 21 8
44 5 51 -3 8 -1 15 4 17 5 2 11 32 13 68 3 36 8 73 12 83 4 9 5 33 3 52 -2 19
0 35 5 35 5 0 7 11 5 25 -3 14 -1 25 5 25 6 0 7 -27 3 -72z m-64 -350 c-7 -7
-12 -8 -12 -2 0 14 12 26 19 19 2 -3 -1 -11 -7 -17z m-21 -81 c-10 -9 -11 -8
-5 6 3 10 9 15 12 12 3 -3 0 -11 -7 -18z m1423 -163 c3 -8 2 -12 -4 -9 -6 3
-10 10 -10 16 0 14 7 11 14 -7z m-1487 -76 c-3 -8 -6 -5 -6 6 -1 11 2 17 5 13
3 -3 4 -12 1 -19z m-16 -59 c-5 -13 -10 -19 -10 -12 -1 15 10 45 15 40 3 -2 0
-15 -5 -28z m-24 -91 c-3 -8 -6 -5 -6 6 -1 11 2 17 5 13 3 -3 4 -12 1 -19z
m-16 -65 c-12 -20 -14 -14 -5 12 4 9 9 14 11 11 3 -2 0 -13 -6 -23z"/>
</g>
</svg>
